<svg id="svg" version="1.1" xmlns="http://www.w3.org/2000/svg" xmlns:xlink="http://www.w3.org/1999/xlink" width="400" height="400" viewBox="0, 0, 400,400"><g id="svgg"><path id="path0" d="M193.800 102.740 C 183.493 106.547,178.338 115.540,180.164 126.532 C 180.533 128.755,180.982 130.670,181.162 130.787 C 181.341 130.904,181.809 131.630,182.200 132.400 C 183.703 135.354,185.744 137.501,189.308 139.877 C 192.965 142.315,192.800 141.641,192.800 154.174 L 192.800 165.200 200.000 165.200 L 207.200 165.200 207.200 153.960 L 207.200 142.721 208.474 141.531 C 209.175 140.876,210.407 140.004,211.213 139.593 C 215.206 137.556,219.247 131.255,219.994 125.900 C 221.368 116.054,217.561 108.548,208.800 103.831 C 206.545 102.617,196.176 101.863,193.800 102.740 M131.200 145.445 C 128.643 145.868,125.003 146.983,124.292 147.561 C 121.622 149.732,118.879 152.953,118.390 154.494 C 118.092 155.432,117.612 156.555,117.324 156.989 C 116.727 157.888,116.586 164.408,117.151 165.020 C 117.344 165.229,117.819 166.376,118.206 167.569 C 119.200 170.632,123.363 174.796,126.431 175.798 C 127.624 176.187,128.818 176.679,129.085 176.890 C 131.095 178.479,139.523 176.449,142.901 173.561 C 147.335 169.771,149.890 162.641,148.420 158.160 C 148.210 157.522,147.851 156.263,147.621 155.363 C 147.391 154.463,146.887 153.336,146.502 152.860 C 146.116 152.383,145.260 151.286,144.600 150.422 C 143.940 149.558,142.901 148.636,142.291 148.373 C 141.680 148.110,141.050 147.680,140.891 147.418 C 140.306 146.458,133.480 145.068,131.200 145.445 M265.600 145.468 C 260.576 146.414,258.201 147.565,255.853 150.188 C 253.458 152.863,252.890 153.827,252.188 156.406 C 249.730 165.430,253.647 173.185,262.200 176.228 C 277.243 181.581,289.698 163.384,279.467 151.000 C 278.559 149.900,277.670 148.938,277.493 148.862 C 277.316 148.786,276.673 148.305,276.065 147.793 C 274.390 146.384,268.126 144.992,265.600 145.468 M194.658 174.440 C 193.370 174.628,191.356 175.236,190.183 175.791 C 189.009 176.346,187.768 176.800,187.425 176.800 C 187.081 176.800,186.800 176.976,186.800 177.192 C 186.800 177.407,186.112 177.934,185.272 178.363 C 183.305 179.367,179.367 183.305,178.363 185.272 C 177.934 186.112,177.427 186.800,177.236 186.800 C 177.045 186.800,176.779 187.388,176.644 188.107 C 176.509 188.826,176.026 190.111,175.570 190.961 C 173.570 194.691,173.694 205.583,175.784 209.800 C 176.329 210.900,176.781 212.115,176.787 212.500 C 176.794 212.885,176.976 213.200,177.192 213.200 C 177.407 213.200,177.934 213.888,178.363 214.728 C 179.367 216.695,183.305 220.633,185.272 221.637 C 186.112 222.066,186.800 222.564,186.800 222.744 C 186.800 222.924,187.565 223.313,188.500 223.608 C 189.435 223.903,190.390 224.285,190.623 224.457 C 192.451 225.810,201.884 226.498,206.000 225.578 C 215.516 223.453,223.453 215.516,225.578 206.000 C 226.494 201.903,225.816 192.512,224.468 190.623 C 224.303 190.390,223.924 189.480,223.627 188.600 C 223.330 187.720,222.976 186.910,222.840 186.800 C 222.704 186.690,222.111 185.856,221.522 184.948 C 220.067 182.701,216.538 179.286,214.704 178.351 C 213.877 177.929,213.200 177.407,213.200 177.192 C 213.200 176.976,212.919 176.800,212.575 176.800 C 212.232 176.800,210.995 176.348,209.827 175.796 C 206.464 174.204,200.139 173.639,194.658 174.440 M164.000 212.516 C 163.450 212.769,162.864 213.193,162.698 213.456 C 162.532 213.720,161.587 214.244,160.598 214.622 C 159.609 215.000,158.800 215.437,158.800 215.594 C 158.800 215.750,158.125 216.174,157.300 216.535 C 156.475 216.896,154.990 217.722,154.000 218.371 C 151.789 219.820,149.989 220.800,149.539 220.800 C 149.352 220.800,148.840 221.160,148.400 221.600 C 147.393 222.607,145.234 222.646,143.954 221.680 C 140.413 219.008,128.885 217.304,126.687 219.128 C 126.381 219.382,125.400 219.847,124.506 220.162 C 117.193 222.743,112.577 230.134,112.635 239.168 C 112.666 243.893,112.778 244.782,113.494 246.000 C 113.947 246.770,114.450 247.850,114.611 248.400 C 116.865 256.102,130.338 261.357,139.537 258.123 C 143.354 256.782,149.600 252.172,149.600 250.696 C 149.600 250.516,149.956 249.880,150.392 249.284 C 151.590 247.643,152.856 243.336,153.061 240.200 C 153.367 235.535,153.801 234.697,156.600 233.368 C 157.260 233.054,158.610 232.260,159.600 231.603 C 160.590 230.946,162.120 230.037,163.000 229.583 C 163.880 229.130,165.438 228.273,166.462 227.679 C 167.486 227.086,168.926 226.258,169.662 225.841 C 170.398 225.423,171.574 224.645,172.275 224.112 L 173.551 223.143 172.165 221.271 C 171.403 220.242,170.514 219.048,170.190 218.619 C 169.865 218.189,169.600 217.684,169.600 217.497 C 169.600 217.310,169.150 216.495,168.600 215.686 C 168.050 214.877,167.600 213.892,167.600 213.497 C 167.600 212.286,165.650 211.754,164.000 212.516 M233.600 212.265 C 233.270 212.360,232.375 213.734,231.612 215.319 C 230.849 216.903,229.454 219.218,228.512 220.462 C 227.570 221.707,226.800 222.840,226.800 222.982 C 226.800 223.365,228.937 225.173,229.407 225.187 C 229.631 225.194,230.531 225.688,231.407 226.284 C 232.283 226.880,234.170 227.982,235.600 228.734 C 237.030 229.485,238.484 230.347,238.831 230.650 C 239.179 230.952,239.577 231.200,239.717 231.200 C 240.364 231.200,246.051 234.947,246.403 235.605 C 246.621 236.014,246.800 237.458,246.800 238.815 C 246.800 245.310,250.297 251.734,256.285 256.239 C 264.753 262.611,282.592 257.640,285.626 248.062 C 285.881 247.258,286.380 246.150,286.736 245.600 C 287.848 243.882,287.678 233.921,286.500 231.716 C 286.005 230.790,285.593 229.800,285.584 229.516 C 285.575 229.232,285.035 228.377,284.384 227.615 C 283.733 226.853,283.200 226.043,283.200 225.815 C 283.200 225.406,281.624 224.029,278.755 221.931 C 274.041 218.484,265.174 217.421,260.325 219.721 C 259.073 220.314,257.842 220.800,257.588 220.800 C 257.334 220.800,256.669 221.160,256.109 221.600 C 254.826 222.610,252.638 222.638,251.658 221.658 C 251.250 221.250,250.481 220.807,249.950 220.673 C 249.419 220.540,248.628 220.109,248.192 219.715 C 247.756 219.322,246.694 218.640,245.832 218.200 C 241.488 215.985,240.800 215.579,240.800 215.236 C 240.800 215.031,240.272 214.748,239.628 214.606 C 238.983 214.464,238.232 214.080,237.959 213.751 C 237.687 213.423,236.842 212.894,236.083 212.577 C 234.659 211.982,234.608 211.976,233.600 212.265 M194.900 262.509 C 193.745 262.731,192.800 263.063,192.800 263.246 C 192.800 263.429,192.215 263.877,191.500 264.240 C 190.000 265.003,186.400 268.626,186.400 269.373 C 186.400 269.651,186.053 270.278,185.629 270.767 C 183.812 272.862,184.018 281.638,185.968 285.200 C 189.064 290.855,193.513 293.411,200.200 293.378 C 215.824 293.300,222.252 271.353,208.700 264.358 C 207.875 263.932,207.200 263.439,207.200 263.261 C 207.200 262.240,198.931 261.734,194.900 262.509 " stroke="none" fill="#f8f9fb" fill-rule="evenodd"></path><path id="path1" d="M110.262 18.126 C 110.004 18.308,110.242 18.344,110.800 18.207 C 111.742 17.976,111.754 17.992,111.000 18.481 C 110.560 18.766,108.760 19.090,107.000 19.200 C 104.185 19.376,103.753 19.506,103.413 20.282 C 103.110 20.973,102.634 21.189,101.213 21.282 C 99.681 21.382,99.380 21.539,99.272 22.300 C 99.179 22.957,98.876 23.200,98.154 23.200 C 97.609 23.200,96.727 23.637,96.193 24.171 C 95.659 24.705,94.812 25.200,94.311 25.271 C 93.731 25.353,93.355 25.718,93.275 26.275 C 93.198 26.821,92.821 27.198,92.275 27.275 C 91.730 27.353,91.353 27.730,91.275 28.275 C 91.198 28.821,90.821 29.198,90.275 29.275 C 89.730 29.353,89.353 29.730,89.275 30.275 C 89.198 30.821,88.821 31.198,88.275 31.275 C 87.654 31.364,87.342 31.749,87.200 32.600 C 87.081 33.311,86.756 33.800,86.400 33.800 C 86.070 33.800,85.825 34.115,85.856 34.500 C 85.886 34.885,85.751 35.200,85.556 35.200 C 85.360 35.200,85.200 35.637,85.200 36.172 C 85.200 36.876,84.951 37.180,84.300 37.272 C 83.532 37.381,83.382 37.679,83.278 39.300 C 83.168 41.015,83.061 41.200,82.178 41.200 C 81.263 41.200,80.895 42.213,81.140 44.062 C 81.159 44.206,80.865 44.566,80.487 44.862 C 79.854 45.358,79.846 45.337,80.393 44.600 C 80.980 43.808,80.977 43.808,80.093 44.562 C 79.602 44.981,79.200 45.703,79.200 46.167 C 79.200 46.658,78.824 47.175,78.300 47.405 C 77.608 47.709,77.372 48.188,77.278 49.475 C 77.178 50.849,76.999 51.173,76.278 51.275 C 75.536 51.381,75.381 51.694,75.278 53.300 C 75.168 55.015,75.061 55.200,74.178 55.200 C 73.446 55.200,73.200 55.415,73.200 56.054 C 73.200 56.524,72.750 57.325,72.200 57.835 C 71.590 58.400,71.200 59.201,71.200 59.886 C 71.200 60.668,70.926 61.130,70.300 61.405 C 69.608 61.709,69.372 62.188,69.278 63.475 C 69.178 64.849,68.999 65.173,68.278 65.275 C 67.538 65.380,67.381 65.694,67.279 67.275 C 67.177 68.856,67.021 69.169,66.279 69.275 C 65.721 69.354,65.353 69.729,65.272 70.300 C 65.202 70.795,64.990 71.200,64.801 71.200 C 64.041 71.200,63.200 72.531,63.200 73.734 C 63.200 74.674,62.963 75.114,62.300 75.405 C 61.605 75.710,61.372 76.187,61.277 77.500 C 61.168 79.002,61.040 79.200,60.177 79.200 C 59.273 79.200,59.200 79.348,59.200 81.172 C 59.200 82.913,59.094 83.159,58.300 83.272 C 57.722 83.354,57.354 83.722,57.272 84.300 C 57.202 84.795,56.990 85.200,56.801 85.200 C 56.041 85.200,55.200 86.531,55.200 87.734 C 55.200 88.674,54.963 89.114,54.300 89.405 C 53.605 89.710,53.372 90.187,53.277 91.500 C 53.168 93.002,53.040 93.200,52.177 93.200 C 51.369 93.200,51.191 93.408,51.150 94.400 C 51.074 96.218,51.044 96.321,50.419 96.880 C 49.912 97.334,49.911 97.298,50.412 96.600 C 50.980 95.808,50.977 95.808,50.093 96.562 C 49.602 96.981,49.200 97.680,49.200 98.116 C 49.200 98.552,48.750 99.325,48.200 99.835 C 47.565 100.424,47.200 101.196,47.200 101.953 C 47.200 102.884,47.003 103.172,46.300 103.272 C 45.532 103.381,45.382 103.679,45.278 105.300 C 45.168 107.015,45.061 107.200,44.178 107.200 C 43.446 107.200,43.200 107.415,43.200 108.054 C 43.200 108.524,42.750 109.325,42.200 109.835 C 41.590 110.400,41.200 111.201,41.200 111.886 C 41.200 112.668,40.926 113.130,40.300 113.405 C 39.608 113.709,39.372 114.188,39.278 115.475 C 39.178 116.849,38.999 117.173,38.278 117.275 C 37.536 117.381,37.381 117.694,37.278 119.300 C 37.168 121.015,37.061 121.200,36.178 121.200 C 35.446 121.200,35.200 121.415,35.200 122.054 C 35.200 122.524,34.750 123.325,34.200 123.835 C 33.590 124.400,33.200 125.201,33.200 125.886 C 33.200 126.668,32.926 127.130,32.300 127.405 C 31.617 127.705,31.371 128.189,31.281 129.413 C 31.192 130.626,30.944 131.122,30.281 131.413 C 29.607 131.709,29.371 132.199,29.277 133.500 C 29.168 135.002,29.040 135.200,28.177 135.200 C 27.333 135.200,27.200 135.385,27.200 136.556 C 27.200 137.601,27.040 137.898,26.500 137.856 C 26.061 137.821,25.821 138.061,25.856 138.500 C 25.886 138.885,25.751 139.200,25.556 139.200 C 25.360 139.200,25.200 139.607,25.200 140.105 C 25.200 140.660,24.852 141.163,24.300 141.405 C 23.605 141.710,23.372 142.187,23.277 143.500 C 23.168 145.002,23.040 145.200,22.177 145.200 C 21.331 145.200,21.200 145.384,21.200 146.571 C 21.200 147.557,20.919 148.163,20.200 148.729 C 19.650 149.161,19.200 149.829,19.200 150.212 C 19.200 150.595,18.750 151.325,18.200 151.835 C 17.565 152.424,17.200 153.196,17.200 153.953 C 17.200 154.884,17.003 155.172,16.300 155.272 C 15.532 155.381,15.382 155.679,15.278 157.300 C 15.168 159.015,15.061 159.200,14.178 159.200 C 13.333 159.200,13.200 159.384,13.200 160.556 C 13.200 161.601,13.040 161.898,12.500 161.856 C 12.061 161.821,11.821 162.061,11.856 162.500 C 11.886 162.885,11.751 163.200,11.556 163.200 C 11.360 163.200,11.200 163.607,11.200 164.105 C 11.200 164.660,10.852 165.163,10.300 165.405 C 9.608 165.709,9.372 166.188,9.278 167.475 C 9.178 168.849,8.999 169.173,8.278 169.275 C 7.536 169.381,7.381 169.694,7.278 171.300 C 7.168 173.015,7.061 173.200,6.178 173.200 C 5.406 173.200,5.200 173.407,5.200 174.182 C 5.200 174.722,4.750 175.614,4.200 176.164 C 3.650 176.714,3.200 177.579,3.200 178.087 C 3.200 178.661,2.859 179.160,2.300 179.405 C 1.605 179.710,1.372 180.187,1.277 181.500 C 1.193 182.657,0.970 183.200,0.577 183.200 C 0.084 183.200,0.000 185.502,0.000 199.000 C 0.000 212.778,0.077 214.800,0.600 214.800 C 1.053 214.800,1.200 215.289,1.200 216.800 C 1.200 218.654,1.271 218.800,2.177 218.800 C 3.040 218.800,3.168 218.998,3.277 220.500 C 3.372 221.813,3.605 222.290,4.300 222.595 C 4.926 222.869,5.200 223.332,5.200 224.113 C 5.200 224.778,5.608 225.644,6.200 226.236 C 6.750 226.786,7.200 227.588,7.200 228.018 C 7.200 228.585,7.474 228.800,8.200 228.800 C 9.133 228.800,9.200 228.933,9.200 230.800 C 9.200 232.654,9.271 232.800,10.177 232.800 C 11.040 232.800,11.168 232.998,11.277 234.500 C 11.372 235.813,11.605 236.290,12.300 236.595 C 12.926 236.869,13.200 237.332,13.200 238.113 C 13.200 238.778,13.608 239.644,14.200 240.236 C 14.750 240.786,15.200 241.588,15.200 242.018 C 15.200 242.581,15.474 242.800,16.178 242.800 C 17.061 242.800,17.168 242.985,17.278 244.700 C 17.382 246.321,17.532 246.619,18.300 246.728 C 19.029 246.831,19.200 247.111,19.200 248.195 C 19.200 250.053,19.557 250.800,20.443 250.800 C 20.984 250.800,21.200 251.086,21.200 251.800 C 21.200 252.350,21.374 252.800,21.587 252.800 C 21.801 252.800,21.877 253.056,21.756 253.369 C 21.631 253.695,21.893 254.129,22.369 254.383 C 22.865 254.649,23.200 255.225,23.200 255.814 C 23.200 256.593,23.405 256.800,24.178 256.800 C 25.061 256.800,25.168 256.985,25.278 258.700 C 25.382 260.321,25.532 260.619,26.300 260.728 C 27.029 260.831,27.200 261.111,27.200 262.195 C 27.200 264.039,27.556 264.800,28.416 264.800 C 28.916 264.800,29.187 265.148,29.273 265.900 C 29.343 266.505,29.610 267.000,29.867 267.000 C 30.811 267.000,31.063 267.509,31.150 269.600 C 31.191 270.593,31.369 270.800,32.178 270.800 C 33.061 270.800,33.168 270.985,33.278 272.700 C 33.382 274.321,33.532 274.619,34.300 274.728 C 35.029 274.831,35.200 275.111,35.200 276.195 C 35.200 278.039,35.556 278.800,36.416 278.800 C 36.916 278.800,37.187 279.148,37.273 279.900 C 37.343 280.505,37.610 281.000,37.867 281.000 C 38.811 281.000,39.063 281.509,39.150 283.600 C 39.191 284.593,39.369 284.800,40.178 284.800 C 41.061 284.800,41.168 284.985,41.278 286.700 C 41.382 288.321,41.532 288.619,42.300 288.728 C 43.029 288.831,43.200 289.111,43.200 290.195 C 43.200 292.053,43.557 292.800,44.443 292.800 C 44.984 292.800,45.200 293.086,45.200 293.800 C 45.200 294.600,45.400 294.800,46.200 294.800 C 47.133 294.800,47.200 294.933,47.200 296.800 C 47.200 298.655,47.271 298.800,48.178 298.800 C 49.061 298.800,49.168 298.985,49.278 300.700 C 49.382 302.321,49.532 302.619,50.300 302.728 C 51.005 302.828,51.200 303.116,51.200 304.054 C 51.200 305.531,51.841 306.800,52.588 306.800 C 52.900 306.800,53.203 307.285,53.273 307.900 C 53.343 308.505,53.610 309.000,53.867 309.000 C 54.811 309.000,55.063 309.509,55.150 311.600 C 55.191 312.593,55.369 312.800,56.178 312.800 C 57.061 312.800,57.168 312.985,57.278 314.700 C 57.382 316.321,57.532 316.619,58.300 316.728 C 59.005 316.828,59.200 317.116,59.200 318.054 C 59.200 319.531,59.841 320.800,60.588 320.800 C 60.900 320.800,61.203 321.285,61.273 321.900 C 61.343 322.505,61.610 323.000,61.867 323.000 C 62.811 323.000,63.063 323.509,63.150 325.600 C 63.191 326.593,63.369 326.800,64.178 326.800 C 65.061 326.800,65.168 326.985,65.278 328.700 C 65.382 330.321,65.532 330.619,66.300 330.728 C 66.951 330.820,67.200 331.124,67.200 331.828 C 67.200 332.363,67.374 332.800,67.587 332.800 C 67.801 332.800,67.877 333.056,67.756 333.369 C 67.632 333.692,67.886 334.125,68.342 334.369 C 68.785 334.606,69.204 335.295,69.273 335.900 C 69.343 336.505,69.610 337.000,69.867 337.000 C 70.811 337.000,71.063 337.509,71.150 339.600 C 71.191 340.593,71.369 340.800,72.178 340.800 C 73.061 340.800,73.168 340.985,73.278 342.700 C 73.382 344.321,73.532 344.619,74.300 344.728 C 74.951 344.820,75.200 345.124,75.200 345.828 C 75.200 346.363,75.374 346.800,75.587 346.800 C 75.801 346.800,75.877 347.056,75.756 347.369 C 75.631 347.695,75.893 348.129,76.369 348.383 C 76.865 348.649,77.200 349.225,77.200 349.814 C 77.200 350.599,77.404 350.800,78.200 350.800 C 79.133 350.800,79.200 350.933,79.200 352.800 C 79.200 354.667,79.267 354.800,80.200 354.800 C 81.072 354.800,81.200 354.976,81.200 356.167 C 81.200 358.052,81.553 358.800,82.443 358.800 C 83.039 358.800,83.200 359.093,83.200 360.171 C 83.200 361.568,84.165 362.992,84.832 362.580 C 85.035 362.455,85.200 362.903,85.200 363.576 C 85.200 364.606,85.354 364.800,86.173 364.800 C 86.938 364.800,87.174 365.036,87.273 365.900 C 87.343 366.505,87.610 367.000,87.867 367.000 C 88.493 367.000,88.936 367.480,89.054 368.288 C 89.327 370.149,89.667 370.800,90.364 370.800 C 90.830 370.800,91.208 371.179,91.364 371.800 C 91.561 372.584,91.870 372.800,92.795 372.800 C 93.651 372.800,93.915 372.956,93.756 373.369 C 93.493 374.057,94.749 374.800,96.174 374.800 C 97.002 374.800,97.200 374.993,97.200 375.800 C 97.200 376.588,97.403 376.800,98.157 376.800 C 98.843 376.800,99.184 377.082,99.364 377.800 C 99.583 378.670,99.836 378.800,101.313 378.800 C 102.690 378.800,103.085 378.970,103.405 379.700 C 103.756 380.499,104.132 380.613,106.759 380.719 C 108.520 380.789,110.054 381.073,110.548 381.419 C 111.516 382.097,111.134 382.187,109.874 381.578 C 109.020 381.166,109.018 381.171,109.792 381.789 C 110.316 382.209,110.993 382.343,111.792 382.187 C 112.706 382.009,112.854 382.054,112.400 382.372 C 111.980 382.666,138.412 382.763,200.418 382.696 C 288.294 382.601,289.045 382.593,290.218 381.800 C 290.976 381.287,292.332 380.928,294.000 380.800 C 296.300 380.623,296.614 380.499,296.725 379.721 C 296.831 378.979,297.144 378.823,298.725 378.721 C 300.304 378.619,300.620 378.462,300.725 377.724 C 300.812 377.111,301.172 376.811,301.925 376.724 C 302.687 376.636,303.037 376.338,303.128 375.700 C 303.226 375.006,303.518 374.800,304.399 374.800 C 305.128 374.800,305.814 374.454,306.294 373.844 C 306.707 373.319,307.395 372.822,307.823 372.740 C 308.255 372.658,308.655 372.205,308.725 371.721 C 308.802 371.179,309.181 370.802,309.725 370.725 C 310.245 370.650,310.647 370.271,310.716 369.788 C 310.780 369.341,311.230 368.801,311.716 368.588 C 312.393 368.291,312.629 367.802,312.723 366.500 C 312.832 364.998,312.960 364.800,313.823 364.800 C 314.571 364.800,314.800 364.588,314.800 363.895 C 314.800 363.340,315.148 362.837,315.700 362.595 C 316.392 362.291,316.628 361.812,316.722 360.525 C 316.822 359.151,317.001 358.827,317.722 358.725 C 318.464 358.619,318.619 358.306,318.722 356.700 C 318.832 354.985,318.939 354.800,319.822 354.800 C 320.599 354.800,320.800 354.594,320.800 353.800 C 320.800 353.250,320.967 352.800,321.171 352.800 C 321.972 352.800,322.800 351.477,322.800 350.199 C 322.800 349.110,322.971 348.831,323.700 348.728 C 324.468 348.619,324.618 348.321,324.722 346.700 C 324.831 344.997,324.943 344.800,325.800 344.800 C 326.657 344.800,326.769 344.603,326.878 342.900 C 326.982 341.279,327.132 340.981,327.900 340.872 C 328.551 340.780,328.800 340.476,328.800 339.772 C 328.800 339.237,328.967 338.800,329.171 338.800 C 329.972 338.800,330.800 337.477,330.800 336.199 C 330.800 335.110,330.971 334.831,331.700 334.728 C 332.468 334.619,332.618 334.321,332.722 332.700 C 332.832 330.985,332.939 330.800,333.822 330.800 C 334.729 330.800,334.800 330.655,334.800 328.800 C 334.800 326.933,334.867 326.800,335.800 326.800 C 336.554 326.800,336.800 326.590,336.800 325.946 C 336.800 325.476,337.250 324.675,337.800 324.165 C 338.435 323.576,338.800 322.804,338.800 322.047 C 338.800 321.116,338.997 320.828,339.700 320.728 C 340.468 320.619,340.618 320.321,340.722 318.700 C 340.832 316.985,340.939 316.800,341.822 316.800 C 342.645 316.800,342.800 316.607,342.800 315.581 C 342.800 314.794,343.155 314.033,343.800 313.435 C 344.350 312.925,344.800 312.190,344.800 311.800 C 344.800 311.410,345.250 310.675,345.800 310.165 C 346.445 309.567,346.800 308.806,346.800 308.019 C 346.800 306.985,346.952 306.800,347.800 306.800 C 348.733 306.800,348.800 306.667,348.800 304.800 C 348.800 302.933,348.867 302.800,349.800 302.800 C 350.648 302.800,350.800 302.615,350.800 301.581 C 350.800 300.794,351.155 300.033,351.800 299.435 C 352.388 298.890,352.800 298.066,352.800 297.435 C 352.800 296.804,353.212 295.980,353.800 295.435 C 354.350 294.925,354.800 294.124,354.800 293.654 C 354.800 293.015,355.046 292.800,355.778 292.800 C 356.661 292.800,356.768 292.615,356.878 290.900 C 356.982 289.279,357.132 288.981,357.900 288.872 C 358.546 288.780,358.800 288.475,358.800 287.790 C 358.800 287.266,359.250 286.386,359.800 285.836 C 360.350 285.286,360.800 284.421,360.800 283.913 C 360.800 283.339,361.141 282.840,361.700 282.595 C 362.395 282.290,362.628 281.813,362.723 280.500 C 362.831 279.009,362.963 278.800,363.801 278.800 C 364.657 278.800,364.769 278.602,364.878 276.900 C 364.982 275.279,365.132 274.981,365.900 274.872 C 366.546 274.780,366.800 274.475,366.800 273.790 C 366.800 273.266,367.250 272.386,367.800 271.836 C 368.350 271.286,368.800 270.391,368.800 269.846 C 368.800 269.124,369.043 268.821,369.700 268.728 C 370.468 268.619,370.618 268.321,370.722 266.700 C 370.831 264.997,370.943 264.800,371.800 264.800 C 372.657 264.800,372.769 264.603,372.878 262.900 C 372.982 261.279,373.132 260.981,373.900 260.872 C 374.603 260.772,374.800 260.484,374.800 259.553 C 374.800 258.796,375.165 258.024,375.800 257.435 C 376.350 256.925,376.800 256.136,376.800 255.682 C 376.800 255.130,377.098 254.813,377.700 254.728 C 378.468 254.619,378.618 254.321,378.722 252.700 C 378.832 250.985,378.939 250.800,379.822 250.800 C 380.729 250.800,380.800 250.655,380.800 248.800 C 380.800 246.933,380.867 246.800,381.800 246.800 C 382.648 246.800,382.800 246.615,382.800 245.581 C 382.800 244.794,383.155 244.033,383.800 243.435 C 384.350 242.925,384.800 242.136,384.800 241.682 C 384.800 241.130,385.098 240.813,385.700 240.728 C 386.468 240.619,386.618 240.321,386.722 238.700 C 386.832 236.985,386.939 236.800,387.822 236.800 C 388.729 236.800,388.800 236.655,388.800 234.800 C 388.800 232.933,388.867 232.800,389.800 232.800 C 390.595 232.800,390.800 232.599,390.800 231.818 C 390.800 231.278,391.250 230.386,391.800 229.836 C 392.350 229.286,392.800 228.391,392.800 227.846 C 392.800 227.124,393.043 226.821,393.700 226.728 C 394.468 226.619,394.618 226.321,394.722 224.700 C 394.832 222.985,394.939 222.800,395.822 222.800 C 396.729 222.800,396.800 222.655,396.800 220.800 C 396.800 218.933,396.867 218.800,397.800 218.800 C 398.676 218.800,398.800 218.627,398.800 217.400 C 398.800 216.422,398.981 216.000,399.400 216.000 C 399.924 216.000,400.000 213.911,400.000 199.600 C 400.000 185.289,399.924 183.200,399.400 183.200 C 398.982 183.200,398.800 182.779,398.800 181.809 C 398.800 180.767,398.549 180.254,397.800 179.763 C 397.250 179.403,396.800 178.750,396.800 178.312 C 396.800 177.874,396.350 177.161,395.800 176.729 C 395.081 176.163,394.800 175.557,394.800 174.571 C 394.800 173.383,394.669 173.200,393.822 173.200 C 392.939 173.200,392.832 173.015,392.722 171.300 C 392.618 169.679,392.468 169.381,391.700 169.272 C 391.041 169.179,390.800 168.877,390.800 168.146 C 390.800 166.745,390.051 165.495,389.369 165.756 C 388.953 165.916,388.800 165.644,388.800 164.745 C 388.800 163.910,388.479 163.263,387.800 162.729 C 387.081 162.163,386.800 161.557,386.800 160.571 C 386.800 159.383,386.669 159.200,385.822 159.200 C 384.939 159.200,384.832 159.015,384.722 157.300 C 384.618 155.679,384.468 155.381,383.700 155.272 C 382.968 155.168,382.800 154.890,382.800 153.781 C 382.800 152.769,382.543 152.250,381.800 151.763 C 381.250 151.403,380.800 150.750,380.800 150.312 C 380.800 149.874,380.350 149.161,379.800 148.729 C 379.081 148.163,378.800 147.557,378.800 146.571 C 378.800 145.383,378.669 145.200,377.822 145.200 C 376.939 145.200,376.832 145.015,376.722 143.300 C 376.620 141.711,376.470 141.400,375.804 141.399 C 375.232 141.399,374.949 141.060,374.800 140.199 C 374.686 139.540,374.384 139.000,374.129 139.000 C 373.189 139.000,372.937 138.488,372.850 136.400 C 372.808 135.400,372.633 135.200,371.800 135.200 C 370.867 135.200,370.800 135.067,370.800 133.200 C 370.800 131.333,370.733 131.200,369.800 131.200 C 368.899 131.200,368.800 131.041,368.800 129.591 C 368.800 128.264,368.625 127.903,367.800 127.527 C 367.137 127.225,366.800 126.748,366.800 126.109 C 366.800 124.741,366.044 123.497,365.369 123.756 C 364.944 123.920,364.800 123.623,364.800 122.587 C 364.800 121.382,364.671 121.200,363.822 121.200 C 362.942 121.200,362.832 121.013,362.722 119.336 C 362.627 117.885,362.437 117.449,361.863 117.366 C 360.902 117.228,360.917 117.252,360.679 115.446 C 360.493 114.042,359.916 113.223,359.100 113.206 C 358.935 113.203,358.800 112.738,358.800 112.174 C 358.800 110.749,358.057 109.493,357.369 109.756 C 356.944 109.920,356.800 109.623,356.800 108.587 C 356.800 107.382,356.671 107.200,355.822 107.200 C 354.939 107.200,354.832 107.015,354.722 105.300 C 354.618 103.679,354.468 103.381,353.700 103.272 C 352.940 103.164,352.800 102.898,352.800 101.564 C 352.800 100.275,352.619 99.900,351.821 99.537 C 351.214 99.260,350.797 98.694,350.721 98.046 C 350.655 97.470,350.390 97.000,350.133 97.000 C 349.189 97.000,348.937 96.491,348.850 94.400 C 348.809 93.407,348.631 93.200,347.822 93.200 C 346.939 93.200,346.832 93.015,346.722 91.300 C 346.618 89.679,346.468 89.381,345.700 89.272 C 345.066 89.182,344.785 88.857,344.750 88.172 C 344.723 87.637,344.655 87.020,344.600 86.800 C 344.545 86.580,344.478 86.232,344.450 86.027 C 344.422 85.822,344.040 85.540,343.600 85.400 C 343.145 85.255,342.800 84.795,342.800 84.331 C 342.800 83.882,342.350 83.161,341.800 82.729 C 341.081 82.163,340.800 81.557,340.800 80.571 C 340.800 79.384,340.669 79.200,339.823 79.200 C 338.960 79.200,338.832 79.002,338.723 77.500 C 338.628 76.187,338.395 75.710,337.700 75.405 C 337.033 75.113,336.800 74.675,336.800 73.714 C 336.800 72.773,336.526 72.239,335.800 71.763 C 335.196 71.367,334.800 70.730,334.800 70.154 C 334.800 69.403,334.587 69.200,333.800 69.200 C 332.867 69.200,332.800 69.067,332.800 67.200 C 332.800 65.333,332.733 65.200,331.800 65.200 C 330.882 65.200,330.800 65.053,330.800 63.408 C 330.800 61.829,330.681 61.585,329.800 61.364 C 329.029 61.171,328.800 60.855,328.800 59.986 C 328.800 59.259,328.444 58.578,327.800 58.071 C 327.190 57.592,326.800 56.878,326.800 56.242 C 326.800 55.403,326.609 55.200,325.822 55.200 C 324.939 55.200,324.832 55.015,324.722 53.300 C 324.648 52.147,324.403 51.380,324.100 51.350 C 323.825 51.323,323.430 51.278,323.222 51.250 C 323.014 51.222,322.789 50.345,322.722 49.300 C 322.620 47.711,322.470 47.400,321.804 47.399 C 321.232 47.399,320.949 47.060,320.800 46.199 C 320.686 45.540,320.384 45.000,320.129 45.000 C 319.189 45.000,318.937 44.488,318.850 42.400 C 318.809 41.407,318.631 41.200,317.822 41.200 C 316.939 41.200,316.832 41.015,316.722 39.300 C 316.618 37.679,316.468 37.381,315.700 37.272 C 315.041 37.179,314.800 36.877,314.800 36.146 C 314.800 34.745,314.051 33.495,313.369 33.756 C 313.001 33.898,312.800 33.709,312.800 33.220 C 312.800 31.936,312.347 31.200,311.557 31.200 C 311.016 31.200,310.800 30.914,310.800 30.200 C 310.800 29.400,310.600 29.200,309.800 29.200 C 309.000 29.200,308.800 29.000,308.800 28.200 C 308.800 27.408,308.598 27.200,307.828 27.200 C 307.124 27.200,306.820 26.951,306.728 26.300 C 306.648 25.740,306.279 25.354,305.750 25.279 C 305.282 25.212,304.486 24.717,303.980 24.179 C 303.474 23.640,302.637 23.200,302.120 23.200 C 301.486 23.200,301.057 22.875,300.800 22.200 C 300.473 21.340,300.171 21.200,298.638 21.200 C 297.094 21.200,296.839 21.080,296.728 20.300 C 296.610 19.470,296.367 19.391,293.600 19.287 C 290.621 19.175,287.990 18.501,288.735 18.040 C 288.949 17.908,248.984 17.800,199.924 17.800 C 150.864 17.800,110.516 17.947,110.262 18.126 M207.031 101.021 C 208.872 101.582,210.481 102.208,210.606 102.410 C 210.732 102.613,211.458 103.075,212.221 103.437 C 214.002 104.282,217.967 108.234,218.637 109.832 C 218.921 110.509,219.429 111.292,219.766 111.572 C 220.103 111.852,220.484 112.737,220.613 113.540 C 220.742 114.343,221.152 115.540,221.524 116.200 C 222.477 117.891,222.507 126.961,221.564 128.418 C 221.215 128.958,220.808 130.013,220.662 130.762 C 220.203 133.106,214.599 140.400,213.257 140.400 C 213.074 140.400,212.401 140.855,211.762 141.410 C 211.123 141.966,210.203 142.524,209.717 142.649 C 208.836 142.878,208.834 142.897,208.717 154.472 C 208.586 167.438,208.557 167.563,205.808 166.957 C 203.930 166.543,195.124 166.678,193.939 167.138 C 191.572 168.058,191.414 167.300,191.283 154.359 C 191.173 143.549,191.119 142.800,190.447 142.800 C 188.034 142.800,180.366 134.823,179.260 131.162 C 179.034 130.413,178.552 128.990,178.188 128.000 C 177.673 126.595,177.563 125.189,177.689 121.600 C 177.846 117.077,177.924 116.751,179.803 112.700 C 181.490 109.063,184.956 104.958,187.400 103.703 C 188.060 103.364,189.023 102.757,189.541 102.354 C 190.058 101.951,191.138 101.498,191.941 101.348 C 192.743 101.198,193.940 100.840,194.600 100.553 C 196.765 99.612,203.205 99.854,207.031 101.021 M140.521 145.000 C 144.087 146.763,148.800 151.341,148.800 153.043 C 148.800 153.336,149.205 154.346,149.700 155.288 C 150.984 157.730,151.001 164.716,149.728 166.874 C 149.264 167.659,148.764 168.853,148.616 169.528 C 148.303 170.951,143.701 175.797,141.824 176.680 C 141.151 176.996,140.060 177.558,139.400 177.928 C 137.362 179.070,127.275 178.903,125.649 177.700 C 124.980 177.205,124.153 176.800,123.813 176.800 C 123.282 176.800,121.599 175.491,120.200 173.990 C 119.980 173.754,119.372 173.165,118.848 172.680 C 118.324 172.196,117.637 171.260,117.320 170.600 C 117.004 169.940,116.442 168.860,116.072 168.200 C 115.529 167.230,115.400 165.891,115.400 161.200 L 115.400 155.400 116.757 153.000 C 121.765 144.141,131.888 140.733,140.521 145.000 M275.068 144.961 C 278.445 146.656,281.570 149.691,283.306 152.964 C 287.275 160.442,283.476 173.299,276.310 176.644 C 275.590 176.980,274.460 177.558,273.800 177.928 C 271.846 179.023,262.079 178.904,260.534 177.766 C 259.910 177.307,258.948 176.819,258.396 176.682 C 257.029 176.343,252.636 171.933,251.832 170.093 C 251.473 169.272,250.880 168.060,250.516 167.400 C 249.269 165.144,249.295 157.796,250.559 155.124 C 251.131 153.913,251.600 152.787,251.600 152.620 C 251.600 151.727,257.416 145.600,258.264 145.600 C 258.455 145.600,259.309 145.226,260.161 144.770 C 264.037 142.692,270.718 142.778,275.068 144.961 M207.200 172.966 C 211.745 174.243,216.116 176.526,218.681 178.963 C 219.166 179.423,219.796 180.011,220.081 180.269 C 220.610 180.747,221.701 182.054,223.362 184.200 C 223.873 184.860,224.430 185.850,224.600 186.400 C 224.771 186.950,225.225 187.803,225.610 188.297 C 225.995 188.790,226.433 189.870,226.583 190.697 C 226.733 191.523,227.135 193.010,227.476 194.000 C 228.329 196.473,228.349 203.129,227.512 206.000 C 227.159 207.210,226.674 208.944,226.433 209.853 C 226.193 210.761,225.727 211.728,225.398 212.002 C 225.069 212.275,224.800 212.807,224.800 213.185 C 224.800 214.336,220.819 219.411,218.420 221.317 C 215.225 223.856,214.585 224.292,213.600 224.599 C 213.050 224.770,212.177 225.241,211.659 225.645 C 211.142 226.048,210.062 226.492,209.259 226.631 C 208.457 226.770,206.990 227.156,206.000 227.490 C 203.467 228.344,196.823 228.342,194.000 227.487 C 192.790 227.120,191.043 226.630,190.117 226.399 C 189.191 226.168,188.329 225.808,188.200 225.601 C 188.072 225.393,187.164 224.868,186.183 224.434 C 185.203 224.000,184.400 223.455,184.400 223.222 C 184.400 222.990,184.162 222.800,183.872 222.800 C 183.419 222.800,181.509 221.353,180.200 220.017 C 168.588 208.166,169.518 188.667,182.200 178.104 C 184.513 176.177,189.958 173.206,191.199 173.194 C 191.529 173.191,192.520 172.929,193.400 172.612 C 196.088 171.643,203.138 171.824,207.200 172.966 M169.280 212.800 C 170.093 214.450,170.858 216.070,170.980 216.400 C 171.101 216.730,171.835 217.810,172.612 218.800 C 173.389 219.790,174.239 221.095,174.500 221.700 C 174.762 222.305,175.112 222.800,175.280 222.800 C 176.121 222.800,173.950 225.508,172.524 226.237 C 171.624 226.697,170.393 227.462,169.789 227.937 C 169.186 228.412,168.416 228.800,168.078 228.800 C 167.740 228.800,167.146 229.087,166.759 229.437 C 166.069 230.061,164.797 230.819,162.000 232.273 C 161.230 232.673,160.510 233.094,160.400 233.209 C 159.958 233.672,158.004 234.800,157.645 234.800 C 155.969 234.800,154.907 237.153,154.720 241.277 C 154.563 244.761,154.369 245.709,153.467 247.397 C 152.880 248.495,152.400 249.529,152.400 249.693 C 152.400 251.014,145.014 258.400,143.693 258.400 C 143.529 258.400,142.568 258.840,141.559 259.377 C 137.639 261.464,127.138 261.582,124.316 259.572 C 123.720 259.147,122.994 258.800,122.703 258.800 C 121.557 258.800,115.600 254.259,115.600 253.385 C 115.600 253.224,115.147 252.672,114.592 252.158 C 114.038 251.644,113.478 250.690,113.348 250.038 C 113.217 249.385,112.876 248.761,112.590 248.651 C 112.303 248.541,111.844 247.405,111.568 246.126 C 111.293 244.847,110.890 243.568,110.673 243.286 C 109.942 242.334,109.839 236.942,110.517 235.096 C 110.859 234.163,111.260 232.770,111.409 232.000 C 111.557 231.230,111.973 230.150,112.333 229.600 C 112.692 229.050,113.306 227.902,113.696 227.050 C 115.331 223.479,122.017 218.362,126.600 217.173 C 131.059 216.017,140.321 216.790,142.314 218.485 C 144.517 220.359,147.106 220.328,149.960 218.393 C 150.928 217.737,151.941 217.200,152.211 217.200 C 152.481 217.200,152.928 216.928,153.204 216.595 C 153.480 216.263,154.447 215.636,155.353 215.202 C 157.235 214.302,161.373 212.027,163.772 210.573 C 166.569 208.879,167.539 209.271,169.280 212.800 M236.677 210.709 C 239.324 212.515,241.059 213.537,241.900 213.787 C 242.395 213.934,242.800 214.207,242.800 214.394 C 242.800 214.581,243.616 215.045,244.613 215.426 C 245.611 215.807,246.556 216.317,246.713 216.559 C 246.871 216.802,247.630 217.323,248.400 217.719 C 249.170 218.114,250.549 218.863,251.464 219.384 C 253.374 220.470,255.443 220.257,257.937 218.716 C 262.112 216.135,273.657 215.957,276.633 218.428 C 276.925 218.670,277.773 219.178,278.517 219.558 C 284.354 222.534,290.000 231.984,290.000 238.778 C 290.000 240.614,288.123 247.601,287.422 248.376 C 287.080 248.754,286.800 249.302,286.800 249.595 C 286.800 251.291,280.153 257.804,277.608 258.602 C 277.062 258.773,276.162 259.240,275.608 259.640 C 271.991 262.250,256.521 260.650,255.268 257.536 C 255.195 257.355,254.565 256.919,253.868 256.567 C 252.810 256.034,251.307 254.481,248.587 251.112 C 246.687 248.760,245.224 243.910,245.210 239.918 C 245.199 236.925,244.424 235.719,241.600 234.298 C 240.830 233.911,239.300 233.065,238.200 232.419 C 237.100 231.772,235.627 230.966,234.927 230.628 C 234.227 230.289,233.545 229.835,233.411 229.617 C 233.277 229.400,232.409 228.857,231.483 228.410 C 224.522 225.048,223.544 223.387,226.534 220.000 C 227.669 218.713,229.200 216.510,229.200 216.163 C 229.200 215.637,232.102 210.195,232.547 209.885 C 233.231 209.411,235.413 209.846,236.677 210.709 M205.800 260.800 C 206.680 261.225,207.581 261.579,207.801 261.586 C 208.979 261.626,214.800 266.643,214.800 267.618 C 214.800 267.846,215.143 268.401,215.562 268.851 C 215.981 269.301,216.446 270.322,216.596 271.121 C 216.746 271.919,217.123 273.065,217.434 273.666 C 218.183 275.115,218.187 280.523,217.439 281.938 C 217.131 282.522,216.671 283.775,216.417 284.721 C 216.163 285.668,215.695 286.542,215.378 286.664 C 215.060 286.786,214.800 287.138,214.800 287.445 C 214.800 288.064,210.156 292.800,209.549 292.800 C 209.339 292.800,208.674 293.165,208.072 293.610 C 205.012 295.873,193.478 295.762,191.790 293.454 C 191.527 293.094,191.045 292.800,190.720 292.800 C 190.011 292.800,185.200 288.081,185.200 287.385 C 185.200 287.117,184.946 286.688,184.637 286.430 C 181.308 283.668,181.537 273.268,185.040 268.102 C 189.685 261.252,199.551 257.782,205.800 260.800 " stroke="none" fill="#4181ee" fill-rule="evenodd"></path><path id="path2" d="M195.200 101.743 C 176.959 105.012,172.920 130.715,189.069 140.757 C 192.281 142.754,192.120 142.102,192.070 152.910 C 192.045 158.240,192.158 163.320,192.319 164.200 L 192.613 165.800 199.920 165.840 C 204.838 165.867,207.320 165.736,207.513 165.440 C 207.671 165.198,207.890 159.962,208.000 153.805 L 208.200 142.610 211.276 140.497 C 231.287 126.749,219.134 97.453,195.200 101.743 M208.800 103.831 C 217.561 108.548,221.368 116.054,219.994 125.900 C 219.247 131.255,215.206 137.556,211.213 139.593 C 210.407 140.004,209.175 140.876,208.474 141.531 L 207.200 142.721 207.200 153.960 L 207.200 165.200 200.000 165.200 L 192.800 165.200 192.800 154.174 C 192.800 141.641,192.965 142.315,189.308 139.877 C 185.744 137.501,183.703 135.354,182.200 132.400 C 181.809 131.630,181.341 130.904,181.162 130.787 C 180.982 130.670,180.533 128.755,180.164 126.532 C 178.338 115.540,183.493 106.547,193.800 102.740 C 196.176 101.863,206.545 102.617,208.800 103.831 M128.500 144.992 C 119.797 147.443,114.392 156.319,116.405 164.856 C 120.380 181.713,143.795 182.470,148.832 165.905 C 152.575 153.597,140.833 141.520,128.500 144.992 M264.200 144.676 C 247.165 148.577,245.613 171.302,261.991 177.024 C 275.737 181.827,288.667 167.381,282.464 154.151 C 279.225 147.242,271.193 143.075,264.200 144.676 M138.200 146.294 C 139.520 146.649,140.731 147.155,140.891 147.418 C 141.050 147.680,141.680 148.110,142.291 148.373 C 142.901 148.636,143.940 149.558,144.600 150.422 C 145.260 151.286,146.116 152.383,146.502 152.860 C 146.887 153.336,147.391 154.463,147.621 155.363 C 147.851 156.263,148.210 157.522,148.420 158.160 C 149.890 162.641,147.335 169.771,142.901 173.561 C 139.523 176.449,131.095 178.479,129.085 176.890 C 128.818 176.679,127.624 176.187,126.431 175.798 C 123.363 174.796,119.200 170.632,118.206 167.569 C 117.819 166.376,117.344 165.229,117.151 165.020 C 116.586 164.408,116.727 157.888,117.324 156.989 C 117.612 156.555,118.092 155.432,118.390 154.494 C 118.879 152.953,121.622 149.732,124.292 147.561 C 125.003 146.983,128.643 145.868,131.200 145.445 C 132.633 145.208,135.425 145.547,138.200 146.294 M272.580 146.259 C 273.889 146.591,275.457 147.282,276.065 147.793 C 276.673 148.305,277.316 148.786,277.493 148.862 C 277.670 148.938,278.559 149.900,279.467 151.000 C 289.698 163.384,277.243 181.581,262.200 176.228 C 253.647 173.185,249.730 165.430,252.188 156.406 C 252.890 153.827,253.458 152.863,255.853 150.188 C 258.201 147.565,260.576 146.414,265.600 145.468 C 266.946 145.215,269.691 145.526,272.580 146.259 M193.600 173.795 C 173.751 178.267,166.286 204.137,180.600 218.848 C 195.528 234.188,222.332 226.502,226.411 205.712 C 230.269 186.052,213.142 169.391,193.600 173.795 M204.752 174.408 C 206.376 174.619,208.659 175.243,209.827 175.796 C 210.995 176.348,212.232 176.800,212.575 176.800 C 212.919 176.800,213.200 176.976,213.200 177.192 C 213.200 177.407,213.877 177.929,214.704 178.351 C 216.538 179.286,220.067 182.701,221.522 184.948 C 222.111 185.856,222.704 186.690,222.840 186.800 C 222.976 186.910,223.330 187.720,223.627 188.600 C 223.924 189.480,224.303 190.390,224.468 190.623 C 225.816 192.512,226.494 201.903,225.578 206.000 C 223.453 215.516,215.516 223.453,206.000 225.578 C 201.884 226.498,192.451 225.810,190.623 224.457 C 190.390 224.285,189.435 223.903,188.500 223.608 C 187.565 223.313,186.800 222.924,186.800 222.744 C 186.800 222.564,186.112 222.066,185.272 221.637 C 183.305 220.633,179.367 216.695,178.363 214.728 C 177.934 213.888,177.407 213.200,177.192 213.200 C 176.976 213.200,176.794 212.885,176.787 212.500 C 176.781 212.115,176.329 210.900,175.784 209.800 C 173.694 205.583,173.570 194.691,175.570 190.961 C 176.026 190.111,176.509 188.826,176.644 188.107 C 176.779 187.388,177.045 186.800,177.236 186.800 C 177.427 186.800,177.934 186.112,178.363 185.272 C 179.367 183.305,183.305 179.367,185.272 178.363 C 186.112 177.934,186.800 177.407,186.800 177.192 C 186.800 176.976,187.081 176.800,187.425 176.800 C 187.768 176.800,189.009 176.346,190.183 175.791 C 193.614 174.168,198.979 173.658,204.752 174.408 M164.194 211.652 C 162.365 212.630,159.589 214.209,152.089 218.536 C 145.843 222.140,146.851 221.984,142.681 219.993 C 120.670 209.485,100.694 236.635,117.799 253.813 C 130.921 266.992,153.906 257.854,154.014 239.416 C 154.037 235.478,153.368 236.052,166.947 228.328 C 169.778 226.718,172.629 224.908,173.283 224.306 L 174.471 223.213 172.602 220.539 C 171.574 219.068,169.908 216.275,168.900 214.332 C 166.892 210.462,166.664 210.332,164.194 211.652 M231.577 213.683 C 230.820 215.269,229.239 217.996,228.064 219.743 C 225.104 224.146,224.302 223.328,240.716 232.651 C 245.749 235.510,245.904 235.736,246.364 240.883 C 248.554 265.411,283.982 266.697,288.223 242.402 C 291.213 225.274,273.502 212.257,257.739 219.998 C 253.656 222.004,254.021 222.033,249.333 219.343 C 247.170 218.101,244.735 216.706,243.922 216.243 C 243.109 215.779,240.648 214.365,238.452 213.100 C 233.301 210.132,233.273 210.134,231.577 213.683 M166.574 212.390 C 167.149 212.609,167.600 213.096,167.600 213.497 C 167.600 213.892,168.050 214.877,168.600 215.686 C 169.150 216.495,169.600 217.310,169.600 217.497 C 169.600 217.684,169.865 218.189,170.190 218.619 C 170.514 219.048,171.403 220.242,172.165 221.271 L 173.551 223.143 172.275 224.112 C 171.574 224.645,170.398 225.423,169.662 225.841 C 168.926 226.258,167.486 227.086,166.462 227.679 C 165.438 228.273,163.880 229.130,163.000 229.583 C 162.120 230.037,160.590 230.946,159.600 231.603 C 158.610 232.260,157.260 233.054,156.600 233.368 C 153.801 234.697,153.367 235.535,153.061 240.200 C 152.856 243.336,151.590 247.643,150.392 249.284 C 149.956 249.880,149.600 250.516,149.600 250.696 C 149.600 252.172,143.354 256.782,139.537 258.123 C 130.338 261.357,116.865 256.102,114.611 248.400 C 114.450 247.850,113.947 246.770,113.494 246.000 C 111.180 242.066,112.422 232.653,115.972 227.212 C 117.986 224.125,121.499 221.224,124.506 220.162 C 125.400 219.847,126.381 219.382,126.687 219.128 C 128.885 217.304,140.413 219.008,143.954 221.680 C 145.234 222.646,147.393 222.607,148.400 221.600 C 148.840 221.160,149.352 220.800,149.539 220.800 C 149.989 220.800,151.789 219.820,154.000 218.371 C 154.990 217.722,156.475 216.896,157.300 216.535 C 158.125 216.174,158.800 215.750,158.800 215.594 C 158.800 215.437,159.609 215.000,160.598 214.622 C 161.587 214.244,162.532 213.720,162.698 213.456 C 162.977 213.013,164.642 212.090,165.274 212.027 C 165.425 212.012,166.010 212.176,166.574 212.390 M236.083 212.577 C 236.842 212.894,237.687 213.423,237.959 213.751 C 238.232 214.080,238.983 214.464,239.628 214.606 C 240.272 214.748,240.800 215.031,240.800 215.236 C 240.800 215.579,241.488 215.985,245.832 218.200 C 246.694 218.640,247.756 219.322,248.192 219.715 C 248.628 220.109,249.419 220.540,249.950 220.673 C 250.481 220.807,251.250 221.250,251.658 221.658 C 252.638 222.638,254.826 222.610,256.109 221.600 C 256.669 221.160,257.334 220.800,257.588 220.800 C 257.842 220.800,259.073 220.314,260.325 219.721 C 265.174 217.421,274.041 218.484,278.755 221.931 C 281.624 224.029,283.200 225.406,283.200 225.815 C 283.200 226.043,283.733 226.853,284.384 227.615 C 285.035 228.377,285.575 229.232,285.584 229.516 C 285.593 229.800,286.005 230.790,286.500 231.716 C 287.678 233.921,287.848 243.882,286.736 245.600 C 286.380 246.150,285.881 247.258,285.626 248.062 C 282.592 257.640,264.753 262.611,256.285 256.239 C 250.297 251.734,246.800 245.310,246.800 238.815 C 246.800 237.458,246.621 236.014,246.403 235.605 C 246.051 234.947,240.364 231.200,239.717 231.200 C 239.577 231.200,239.179 230.952,238.831 230.650 C 238.484 230.347,237.030 229.485,235.600 228.734 C 234.170 227.982,232.283 226.880,231.407 226.284 C 230.531 225.688,229.631 225.194,229.407 225.187 C 228.937 225.173,226.800 223.365,226.800 222.982 C 226.800 222.840,227.570 221.707,228.512 220.462 C 229.454 219.218,230.849 216.903,231.612 215.319 C 232.826 212.799,233.293 212.260,234.451 212.046 C 234.589 212.021,235.324 212.260,236.083 212.577 M197.600 261.068 C 185.588 262.978,179.422 276.575,185.972 286.709 C 193.839 298.880,212.585 295.973,216.230 282.016 C 219.271 270.370,209.339 259.202,197.600 261.068 M204.654 262.469 C 206.054 262.727,207.200 263.084,207.200 263.261 C 207.200 263.439,207.875 263.932,208.700 264.358 C 222.252 271.353,215.824 293.300,200.200 293.378 C 194.609 293.406,192.455 292.520,188.286 288.480 C 184.498 284.807,182.869 273.949,185.629 270.767 C 186.053 270.278,186.400 269.651,186.400 269.373 C 186.400 268.626,190.000 265.003,191.500 264.240 C 192.215 263.877,192.800 263.429,192.800 263.246 C 192.800 262.243,200.640 261.730,204.654 262.469 " stroke="none" fill="#a8c4f5" fill-rule="evenodd"></path><path id="path3" d="M199.100 101.082 C 199.595 101.178,200.405 101.178,200.900 101.082 C 201.395 100.987,200.990 100.909,200.000 100.909 C 199.010 100.909,198.605 100.987,199.100 101.082 M195.700 101.476 C 196.085 101.576,196.715 101.576,197.100 101.476 C 197.485 101.375,197.170 101.293,196.400 101.293 C 195.630 101.293,195.315 101.375,195.700 101.476 M202.900 101.476 C 203.285 101.576,203.915 101.576,204.300 101.476 C 204.685 101.375,204.370 101.293,203.600 101.293 C 202.830 101.293,202.515 101.375,202.900 101.476 M189.200 103.606 C 188.430 104.030,187.170 104.946,186.400 105.640 L 185.000 106.903 186.400 105.849 C 187.170 105.269,188.475 104.433,189.300 103.989 C 190.125 103.546,190.800 103.097,190.800 102.992 C 190.800 102.728,190.781 102.736,189.200 103.606 M209.200 102.982 C 209.200 103.093,209.884 103.533,210.721 103.960 C 212.805 105.023,216.071 108.027,217.622 110.308 C 218.330 111.349,218.793 111.866,218.651 111.459 C 217.784 108.963,209.200 101.264,209.200 102.982 M183.723 108.100 C 182.941 108.961,181.190 111.615,181.677 111.200 C 182.060 110.874,184.806 107.200,184.667 107.200 C 184.597 107.200,184.172 107.605,183.723 108.100 M180.581 112.837 C 180.229 113.518,180.012 114.145,180.099 114.232 C 180.186 114.319,180.556 113.762,180.922 112.995 C 181.744 111.270,181.459 111.138,180.581 112.837 M179.029 117.429 C 178.881 118.015,178.838 118.572,178.932 118.666 C 179.027 118.760,179.224 118.358,179.371 117.771 C 179.519 117.185,179.562 116.628,179.468 116.534 C 179.373 116.440,179.176 116.842,179.029 117.429 M178.509 120.800 C 178.509 121.790,178.587 122.195,178.682 121.700 C 178.778 121.205,178.778 120.395,178.682 119.900 C 178.587 119.405,178.509 119.810,178.509 120.800 M178.493 124.400 C 178.493 125.170,178.575 125.485,178.676 125.100 C 178.776 124.715,178.776 124.085,178.676 123.700 C 178.575 123.315,178.493 123.630,178.493 124.400 M221.022 125.022 C 220.872 125.825,220.828 126.562,220.926 126.660 C 221.024 126.757,221.227 126.181,221.378 125.378 C 221.528 124.575,221.572 123.838,221.474 123.740 C 221.376 123.643,221.173 124.219,221.022 125.022 M179.050 127.200 C 179.190 127.970,179.461 128.960,179.654 129.400 C 179.894 129.949,179.924 129.761,179.750 128.800 C 179.610 128.030,179.339 127.040,179.146 126.600 C 178.906 126.051,178.876 126.239,179.050 127.200 M180.000 130.553 C 180.000 130.982,181.190 133.200,181.421 133.200 C 181.531 133.200,181.323 132.615,180.959 131.900 C 180.217 130.440,180.000 130.136,180.000 130.553 M182.234 134.707 C 182.645 135.426,183.693 136.686,184.562 137.507 C 186.058 138.919,186.038 138.870,184.191 136.600 C 181.576 133.387,181.359 133.176,182.234 134.707 M214.975 137.700 L 213.800 139.000 215.100 137.825 C 215.815 137.179,216.400 136.594,216.400 136.525 C 216.400 136.216,216.070 136.488,214.975 137.700 M186.400 139.174 C 186.400 139.397,186.985 139.863,187.700 140.209 C 188.793 140.739,188.873 140.742,188.200 140.233 C 187.760 139.900,187.175 139.434,186.900 139.198 C 186.578 138.921,186.400 138.913,186.400 139.174 M189.800 141.417 C 190.240 141.842,190.941 142.552,191.358 142.995 C 191.786 143.450,192.038 143.554,191.936 143.234 C 191.837 142.923,191.136 142.213,190.378 141.657 C 189.620 141.100,189.360 140.992,189.800 141.417 M133.601 144.393 C 135.252 144.586,137.122 144.942,137.757 145.184 C 138.392 145.425,138.985 145.548,139.076 145.457 C 139.477 145.057,136.342 144.333,133.600 144.194 L 130.600 144.041 133.601 144.393 M265.233 144.144 C 265.325 144.223,266.840 144.383,268.600 144.498 C 270.415 144.618,271.281 144.576,270.600 144.402 C 269.388 144.091,264.925 143.877,265.233 144.144 M127.400 144.986 C 125.859 145.691,126.126 145.696,128.600 145.009 C 129.811 144.673,130.206 144.450,129.600 144.445 C 129.050 144.440,128.060 144.683,127.400 144.986 M261.000 145.414 C 260.000 145.896,259.966 145.951,260.800 145.748 C 261.933 145.471,263.207 144.821,262.600 144.830 C 262.380 144.833,261.660 145.096,261.000 145.414 M273.146 145.416 C 273.886 145.737,274.606 145.994,274.746 145.986 C 275.266 145.957,272.976 144.828,272.400 144.830 C 272.070 144.831,272.406 145.094,273.146 145.416 M123.578 146.749 C 121.085 148.360,117.600 152.219,117.600 153.367 C 117.600 153.581,118.112 152.949,118.737 151.963 C 119.999 149.974,122.655 147.530,124.800 146.383 C 125.570 145.972,126.010 145.627,125.778 145.618 C 125.546 145.608,124.556 146.117,123.578 146.749 M140.800 146.377 C 143.067 147.579,145.856 150.266,147.164 152.510 C 147.834 153.660,148.386 154.452,148.391 154.271 C 148.443 152.352,141.718 145.543,139.844 145.618 C 139.600 145.627,140.030 145.969,140.800 146.377 M275.785 146.494 C 276.217 146.772,277.657 147.985,278.985 149.188 L 281.400 151.376 279.400 149.257 C 278.300 148.091,276.860 146.879,276.200 146.563 C 275.540 146.247,275.353 146.216,275.785 146.494 M253.944 150.700 C 252.793 152.089,252.306 152.800,252.504 152.800 C 252.614 152.800,253.186 152.170,253.773 151.400 C 254.863 149.971,254.995 149.432,253.944 150.700 M281.878 152.995 C 282.244 153.762,282.614 154.319,282.701 154.232 C 282.884 154.049,281.670 151.600,281.396 151.600 C 281.295 151.600,281.512 152.228,281.878 152.995 M116.650 155.591 C 116.293 156.485,116.006 157.528,116.013 157.908 C 116.020 158.289,116.367 157.612,116.784 156.404 C 117.677 153.816,117.585 153.255,116.650 155.591 M115.724 161.000 C 115.726 162.320,115.801 162.812,115.890 162.093 C 115.979 161.374,115.977 160.294,115.886 159.693 C 115.795 159.092,115.722 159.680,115.724 161.000 M149.728 161.200 C 149.728 162.630,149.801 163.215,149.889 162.500 C 149.978 161.785,149.978 160.615,149.889 159.900 C 149.801 159.185,149.728 159.770,149.728 161.200 M284.124 161.000 C 284.126 162.320,284.201 162.812,284.290 162.093 C 284.379 161.374,284.377 160.294,284.286 159.693 C 284.195 159.092,284.122 159.680,284.124 161.000 M116.068 164.600 C 116.062 165.040,116.211 165.760,116.400 166.200 C 116.838 167.219,116.838 166.168,116.400 164.800 C 116.143 163.996,116.077 163.957,116.068 164.600 M192.766 166.126 C 192.947 166.307,193.793 166.393,194.647 166.319 L 196.200 166.183 194.319 165.990 C 193.284 165.884,192.585 165.945,192.766 166.126 M199.107 165.890 C 199.826 165.979,200.906 165.977,201.507 165.886 C 202.108 165.795,201.520 165.722,200.200 165.724 C 198.880 165.726,198.388 165.801,199.107 165.890 M205.800 166.000 L 204.200 166.286 205.676 166.343 C 206.488 166.374,207.264 166.220,207.400 166.000 C 207.536 165.780,207.592 165.626,207.524 165.657 C 207.456 165.688,206.680 165.842,205.800 166.000 M116.800 167.349 C 116.800 167.781,118.389 170.800,118.616 170.800 C 118.726 170.800,118.430 170.035,117.959 169.100 C 117.032 167.261,116.800 166.911,116.800 167.349 M120.200 172.746 C 121.872 174.526,125.027 176.813,125.769 176.782 C 126.006 176.773,125.547 176.420,124.750 175.998 C 123.952 175.577,122.242 174.289,120.950 173.137 C 118.915 171.324,118.815 171.271,120.200 172.746 M279.200 173.000 C 278.228 173.990,277.523 174.800,277.633 174.800 C 277.743 174.800,278.628 173.990,279.600 173.000 C 280.572 172.010,281.277 171.200,281.167 171.200 C 281.057 171.200,280.172 172.010,279.200 173.000 M198.112 173.095 C 199.164 173.177,200.784 173.176,201.712 173.092 C 202.640 173.008,201.780 172.941,199.800 172.942 C 197.820 172.943,197.060 173.012,198.112 173.095 M187.746 175.583 C 185.003 176.963,180.192 180.400,181.004 180.400 C 181.164 180.400,181.896 179.872,182.631 179.226 C 184.340 177.726,187.064 176.132,189.937 174.950 C 191.182 174.438,191.906 174.015,191.546 174.009 C 191.187 174.004,189.477 174.712,187.746 175.583 M131.705 178.287 C 132.314 178.379,133.214 178.377,133.705 178.282 C 134.197 178.187,133.700 178.111,132.600 178.114 C 131.500 178.117,131.097 178.195,131.705 178.287 M266.700 178.282 C 267.195 178.378,268.005 178.378,268.500 178.282 C 268.995 178.187,268.590 178.109,267.600 178.109 C 266.610 178.109,266.205 178.187,266.700 178.282 M179.786 181.371 C 177.692 184.264,176.788 185.600,176.923 185.600 C 177.182 185.600,180.457 181.124,180.307 180.974 C 180.233 180.899,179.998 181.078,179.786 181.371 M219.600 181.064 C 219.600 181.282,220.095 181.897,220.700 182.430 L 221.800 183.400 220.800 182.200 C 220.250 181.540,219.755 180.925,219.700 180.833 C 219.645 180.742,219.600 180.845,219.600 181.064 M172.940 200.000 C 172.940 201.870,173.009 202.635,173.093 201.700 C 173.177 200.765,173.177 199.235,173.093 198.300 C 173.009 197.365,172.940 198.130,172.940 200.000 M226.940 200.000 C 226.940 201.870,227.009 202.635,227.093 201.700 C 227.177 200.765,227.177 199.235,227.093 198.300 C 227.009 197.365,226.940 198.130,226.940 200.000 M152.094 218.152 C 148.608 220.152,146.594 221.525,148.800 220.397 C 152.231 218.642,156.631 215.924,155.900 216.012 C 155.845 216.019,154.132 216.981,152.094 218.152 M131.500 217.489 C 132.215 217.578,133.385 217.578,134.100 217.489 C 134.815 217.401,134.230 217.328,132.800 217.328 C 131.370 217.328,130.785 217.401,131.500 217.489 M137.946 218.182 C 139.347 218.505,140.937 219.060,141.481 219.416 C 142.025 219.772,142.553 219.980,142.656 219.878 C 143.048 219.485,139.269 217.997,137.381 217.801 C 135.523 217.608,135.558 217.632,137.946 218.182 M123.700 219.183 C 122.325 219.834,121.200 220.467,121.200 220.591 C 121.200 220.715,121.965 220.423,122.900 219.942 C 123.835 219.462,125.320 218.840,126.200 218.561 C 127.080 218.282,127.440 218.042,127.000 218.027 C 126.560 218.013,125.075 218.533,123.700 219.183 M227.350 220.300 C 226.167 221.925,225.802 222.752,226.777 221.600 C 227.678 220.534,228.519 219.200,228.289 219.200 C 228.213 219.200,227.790 219.695,227.350 220.300 M180.833 219.700 C 180.925 219.755,181.540 220.250,182.200 220.800 L 183.400 221.800 182.430 220.700 C 181.897 220.095,181.282 219.600,181.064 219.600 C 180.845 219.600,180.742 219.645,180.833 219.700 M216.600 221.450 C 215.881 222.062,215.734 222.305,216.233 222.057 C 216.966 221.693,218.341 220.376,217.949 220.414 C 217.867 220.422,217.260 220.888,216.600 221.450 M118.165 223.031 L 115.800 225.263 118.300 223.142 C 119.675 221.976,120.800 220.972,120.800 220.911 C 120.800 220.608,120.344 220.975,118.165 223.031 M252.662 221.300 C 252.764 221.465,253.366 221.600,254.000 221.600 C 254.634 221.600,255.236 221.465,255.338 221.300 C 255.440 221.135,254.838 221.000,254.000 221.000 C 253.162 221.000,252.560 221.135,252.662 221.300 M279.800 221.473 C 281.358 223.043,284.054 225.215,283.000 224.052 C 282.340 223.323,281.260 222.354,280.600 221.899 C 279.940 221.443,279.580 221.252,279.800 221.473 M198.300 227.093 C 199.235 227.177,200.765 227.177,201.700 227.093 C 202.635 227.009,201.870 226.940,200.000 226.940 C 198.130 226.940,197.365 227.009,198.300 227.093 M161.700 231.246 C 160.337 232.119,159.895 232.706,161.100 232.043 C 162.018 231.539,163.456 230.427,163.200 230.419 C 163.090 230.416,162.415 230.788,161.700 231.246 M241.600 233.379 C 241.600 233.489,242.140 233.859,242.800 234.200 C 243.460 234.541,244.000 234.731,244.000 234.621 C 244.000 234.511,243.460 234.141,242.800 233.800 C 242.140 233.459,241.600 233.269,241.600 233.379 M111.159 237.300 C 111.098 239.859,111.214 241.254,111.615 242.800 C 111.922 243.984,111.942 243.891,111.744 242.200 C 111.616 241.100,111.531 239.165,111.557 237.900 C 111.583 236.635,111.513 235.600,111.402 235.600 C 111.291 235.600,111.182 236.365,111.159 237.300 M288.493 236.800 C 288.493 237.570,288.575 237.885,288.676 237.500 C 288.776 237.115,288.776 236.485,288.676 236.100 C 288.575 235.715,288.493 236.030,288.493 236.800 M246.124 241.000 C 246.126 242.320,246.201 242.812,246.290 242.093 C 246.379 241.374,246.377 240.294,246.286 239.693 C 246.195 239.092,246.122 239.680,246.124 241.000 M114.445 250.400 C 115.011 251.555,119.062 255.898,120.084 256.445 C 120.464 256.648,119.641 255.686,118.256 254.307 C 116.870 252.928,115.336 251.260,114.846 250.600 C 114.130 249.635,114.051 249.595,114.445 250.400 M282.185 254.100 L 280.200 256.200 282.300 254.215 C 284.251 252.371,284.583 252.000,284.285 252.000 C 284.222 252.000,283.277 252.945,282.185 254.100 M275.200 258.600 C 274.650 258.914,274.380 259.172,274.600 259.172 C 274.820 259.172,275.450 258.914,276.000 258.600 C 276.550 258.286,276.820 258.028,276.600 258.028 C 276.380 258.028,275.750 258.286,275.200 258.600 M131.100 260.293 C 132.035 260.377,133.565 260.377,134.500 260.293 C 135.435 260.209,134.670 260.140,132.800 260.140 C 130.930 260.140,130.165 260.209,131.100 260.293 M265.911 260.293 C 266.851 260.378,268.291 260.377,269.111 260.291 C 269.930 260.205,269.160 260.136,267.400 260.137 C 265.640 260.139,264.970 260.209,265.911 260.293 M182.901 277.800 C 182.905 278.680,182.987 278.993,183.083 278.495 C 183.179 277.998,183.175 277.278,183.075 276.895 C 182.975 276.513,182.896 276.920,182.901 277.800 M216.901 277.800 C 216.905 278.680,216.987 278.993,217.083 278.495 C 217.179 277.998,217.175 277.278,217.075 276.895 C 216.975 276.513,216.896 276.920,216.901 277.800 M212.181 289.300 L 210.600 291.000 212.300 289.419 C 213.881 287.948,214.184 287.600,213.881 287.600 C 213.816 287.600,213.051 288.365,212.181 289.300 M199.305 294.687 C 199.914 294.779,200.814 294.777,201.305 294.682 C 201.797 294.587,201.300 294.511,200.200 294.514 C 199.100 294.517,198.697 294.595,199.305 294.687 " stroke="none" fill="#99bcf6" fill-rule="evenodd"></path><path id="path4" d="M156.100 17.900 C 180.245 17.957,219.755 17.957,243.900 17.900 C 268.045 17.843,248.290 17.796,200.000 17.796 C 151.710 17.796,131.955 17.843,156.100 17.900 M109.800 18.586 C 109.140 18.888,108.870 19.143,109.200 19.153 C 109.530 19.163,110.250 18.914,110.800 18.600 C 112.073 17.872,111.380 17.862,109.800 18.586 M289.200 18.600 C 289.750 18.914,290.470 19.172,290.800 19.172 C 291.147 19.172,290.978 18.930,290.400 18.600 C 289.850 18.286,289.130 18.028,288.800 18.028 C 288.453 18.028,288.622 18.270,289.200 18.600 M194.600 100.553 C 193.940 100.840,192.743 101.198,191.941 101.348 C 191.138 101.498,190.058 101.951,189.541 102.354 C 189.023 102.757,188.060 103.364,187.400 103.703 C 184.956 104.958,181.490 109.063,179.803 112.700 C 177.924 116.751,177.846 117.077,177.689 121.600 C 177.563 125.189,177.673 126.595,178.188 128.000 C 178.552 128.990,179.034 130.413,179.260 131.162 C 180.366 134.823,188.034 142.800,190.447 142.800 C 191.119 142.800,191.173 143.549,191.283 154.359 C 191.414 167.300,191.572 168.058,193.939 167.138 C 195.124 166.678,203.930 166.543,205.808 166.957 C 208.557 167.563,208.586 167.438,208.717 154.472 C 208.834 142.897,208.836 142.878,209.717 142.649 C 210.203 142.524,211.123 141.966,211.762 141.410 C 212.401 140.855,213.074 140.400,213.257 140.400 C 214.599 140.400,220.203 133.106,220.662 130.762 C 220.808 130.013,221.215 128.958,221.564 128.418 C 222.507 126.961,222.477 117.891,221.524 116.200 C 221.152 115.540,220.742 114.343,220.613 113.540 C 220.484 112.737,220.103 111.852,219.766 111.572 C 219.429 111.292,218.921 110.509,218.637 109.832 C 217.967 108.234,214.002 104.282,212.221 103.437 C 211.458 103.075,210.732 102.613,210.606 102.410 C 209.511 100.638,197.587 99.254,194.600 100.553 M203.471 101.223 C 223.080 103.876,228.183 131.307,210.877 141.035 C 208.002 142.651,208.001 142.657,207.994 154.519 C 207.991 160.283,207.825 165.257,207.626 165.572 C 207.038 166.501,192.860 166.459,192.361 165.526 C 192.162 165.156,192.000 160.053,192.000 154.187 L 192.000 143.521 190.730 142.334 C 190.031 141.682,188.906 140.863,188.230 140.514 C 184.597 138.641,180.632 133.135,179.222 128.008 C 175.923 116.004,184.130 102.920,196.000 101.262 C 199.656 100.751,199.970 100.750,203.471 101.223 M128.600 143.583 C 124.099 144.564,119.424 148.281,116.757 153.000 L 115.400 155.400 115.400 161.200 C 115.400 165.891,115.529 167.230,116.072 168.200 C 116.442 168.860,117.004 169.940,117.320 170.600 C 117.637 171.260,118.324 172.196,118.848 172.680 C 119.372 173.165,119.980 173.754,120.200 173.990 C 121.599 175.491,123.282 176.800,123.813 176.800 C 124.153 176.800,124.980 177.205,125.649 177.700 C 127.275 178.903,137.362 179.070,139.400 177.928 C 140.060 177.558,141.151 176.996,141.824 176.680 C 143.701 175.797,148.303 170.951,148.616 169.528 C 148.764 168.853,149.264 167.659,149.728 166.874 C 151.001 164.716,150.984 157.730,149.700 155.288 C 149.205 154.346,148.800 153.336,148.800 153.043 C 148.800 152.408,146.961 149.972,144.942 147.934 C 141.377 144.334,134.075 142.390,128.600 143.583 M263.355 143.586 C 262.450 143.781,261.013 144.313,260.161 144.770 C 259.309 145.226,258.455 145.600,258.264 145.600 C 257.416 145.600,251.600 151.727,251.600 152.620 C 251.600 152.787,251.131 153.913,250.559 155.124 C 249.295 157.796,249.269 165.144,250.516 167.400 C 250.880 168.060,251.473 169.272,251.832 170.093 C 252.636 171.933,257.029 176.343,258.396 176.682 C 258.948 176.819,259.910 177.307,260.534 177.766 C 262.079 178.904,271.846 179.023,273.800 177.928 C 274.460 177.558,275.590 176.980,276.310 176.644 C 285.785 172.222,287.821 156.335,279.925 148.439 C 275.754 144.268,269.167 142.339,263.355 143.586 M139.218 145.371 C 150.809 150.012,153.499 165.033,144.287 173.681 C 139.743 177.947,132.344 179.528,127.200 177.331 C 126.430 177.002,125.252 176.499,124.582 176.212 C 122.387 175.273,118.898 171.699,117.610 169.069 C 110.589 154.740,124.504 139.481,139.218 145.371 M270.880 144.450 C 284.271 147.294,288.906 164.559,278.747 173.753 C 269.460 182.157,255.312 178.375,251.160 166.377 C 246.960 154.239,258.188 141.755,270.880 144.450 M193.400 172.612 C 192.520 172.929,191.529 173.191,191.199 173.194 C 189.958 173.206,184.513 176.177,182.200 178.104 C 169.518 188.667,168.588 208.166,180.200 220.017 C 181.509 221.353,183.419 222.800,183.872 222.800 C 184.162 222.800,184.400 222.990,184.400 223.222 C 184.400 223.455,185.203 224.000,186.183 224.434 C 187.164 224.868,188.072 225.393,188.200 225.601 C 188.329 225.808,189.191 226.168,190.117 226.399 C 191.043 226.630,192.790 227.120,194.000 227.487 C 196.823 228.342,203.467 228.344,206.000 227.490 C 206.990 227.156,208.457 226.770,209.259 226.631 C 210.062 226.492,211.142 226.048,211.659 225.645 C 212.177 225.241,213.050 224.770,213.600 224.599 C 214.585 224.292,215.225 223.856,218.420 221.317 C 220.819 219.411,224.800 214.336,224.800 213.185 C 224.800 212.807,225.069 212.275,225.398 212.002 C 225.727 211.728,226.193 210.761,226.433 209.853 C 226.674 208.944,227.159 207.210,227.512 206.000 C 228.349 203.129,228.329 196.473,227.476 194.000 C 227.135 193.010,226.733 191.523,226.583 190.697 C 226.433 189.870,225.995 188.790,225.610 188.297 C 225.225 187.803,224.771 186.950,224.600 186.400 C 224.430 185.850,223.873 184.860,223.362 184.200 C 221.701 182.054,220.610 180.747,220.081 180.269 C 219.796 180.011,219.166 179.423,218.681 178.963 C 212.961 173.529,199.936 170.257,193.400 172.612 M206.057 173.582 C 218.159 176.258,226.299 185.886,227.039 198.400 C 228.487 222.884,200.899 236.181,181.577 220.312 C 178.374 217.682,174.706 211.142,173.582 206.057 C 169.170 186.106,186.106 169.170,206.057 173.582 M163.772 210.573 C 161.373 212.027,157.235 214.302,155.353 215.202 C 154.447 215.636,153.480 216.263,153.204 216.595 C 152.928 216.928,152.481 217.200,152.211 217.200 C 151.941 217.200,150.928 217.737,149.960 218.393 C 147.106 220.328,144.517 220.359,142.314 218.485 C 140.321 216.790,131.059 216.017,126.600 217.173 C 122.017 218.362,115.331 223.479,113.696 227.050 C 113.306 227.902,112.692 229.050,112.333 229.600 C 111.973 230.150,111.557 231.230,111.409 232.000 C 111.260 232.770,110.859 234.163,110.517 235.096 C 109.839 236.942,109.942 242.334,110.673 243.286 C 110.890 243.568,111.293 244.847,111.568 246.126 C 111.844 247.405,112.303 248.541,112.590 248.651 C 112.876 248.761,113.217 249.385,113.348 250.038 C 113.478 250.690,114.038 251.644,114.592 252.158 C 115.147 252.672,115.600 253.224,115.600 253.385 C 115.600 254.259,121.557 258.800,122.703 258.800 C 122.994 258.800,123.720 259.147,124.316 259.572 C 127.138 261.582,137.639 261.464,141.559 259.377 C 142.568 258.840,143.529 258.400,143.693 258.400 C 145.014 258.400,152.400 251.014,152.400 249.693 C 152.400 249.529,152.880 248.495,153.467 247.397 C 154.369 245.709,154.563 244.761,154.720 241.277 C 154.907 237.153,155.969 234.800,157.645 234.800 C 158.004 234.800,159.958 233.672,160.400 233.209 C 160.510 233.094,161.230 232.673,162.000 232.273 C 164.797 230.819,166.069 230.061,166.759 229.437 C 167.146 229.087,167.740 228.800,168.078 228.800 C 168.416 228.800,169.186 228.412,169.789 227.937 C 170.393 227.462,171.624 226.697,172.524 226.237 C 173.950 225.508,176.121 222.800,175.280 222.800 C 175.112 222.800,174.762 222.305,174.500 221.700 C 174.239 221.095,173.389 219.790,172.612 218.800 C 171.835 217.810,171.101 216.730,170.980 216.400 C 168.674 210.121,166.894 208.682,163.772 210.573 M232.547 209.885 C 232.102 210.195,229.200 215.637,229.200 216.163 C 229.200 216.510,227.669 218.713,226.534 220.000 C 223.544 223.387,224.522 225.048,231.483 228.410 C 232.409 228.857,233.277 229.400,233.411 229.617 C 233.545 229.835,234.227 230.289,234.927 230.628 C 235.627 230.966,237.100 231.772,238.200 232.419 C 239.300 233.065,240.830 233.911,241.600 234.298 C 244.424 235.719,245.199 236.925,245.210 239.918 C 245.224 243.910,246.687 248.760,248.587 251.112 C 251.307 254.481,252.810 256.034,253.868 256.567 C 254.565 256.919,255.195 257.355,255.268 257.536 C 256.521 260.650,271.991 262.250,275.608 259.640 C 276.162 259.240,277.062 258.773,277.608 258.602 C 280.153 257.804,286.800 251.291,286.800 249.595 C 286.800 249.302,287.080 248.754,287.422 248.376 C 288.123 247.601,290.000 240.614,290.000 238.778 C 290.000 231.984,284.354 222.534,278.517 219.558 C 277.773 219.178,276.925 218.670,276.633 218.428 C 273.657 215.957,262.112 216.135,257.937 218.716 C 255.443 220.257,253.374 220.470,251.464 219.384 C 250.549 218.863,249.170 218.114,248.400 217.719 C 247.630 217.323,246.871 216.802,246.713 216.559 C 246.556 216.317,245.611 215.807,244.613 215.426 C 243.616 215.045,242.800 214.581,242.800 214.394 C 242.800 214.207,242.395 213.934,241.900 213.787 C 241.059 213.537,239.324 212.515,236.677 210.709 C 235.413 209.846,233.231 209.411,232.547 209.885 M168.978 214.007 C 169.836 215.770,171.407 218.420,172.469 219.896 C 175.469 224.063,176.104 223.438,159.000 233.158 C 154.387 235.779,154.060 236.326,154.017 241.496 C 153.877 258.445,129.556 266.636,117.293 253.865 C 100.594 236.476,121.093 208.645,142.531 219.600 C 146.514 221.635,145.844 221.747,152.500 217.936 C 155.635 216.140,159.370 214.045,160.800 213.279 C 162.230 212.513,163.755 211.642,164.189 211.343 C 166.211 209.951,167.301 210.557,168.978 214.007 M236.908 211.872 C 237.839 212.462,240.310 213.922,242.400 215.117 C 244.490 216.313,246.830 217.662,247.600 218.115 C 253.767 221.746,253.707 221.735,257.465 219.810 C 279.067 208.744,299.623 236.902,282.446 254.029 C 269.456 266.981,247.051 258.710,246.085 240.604 C 245.807 235.402,247.165 236.558,229.353 226.357 C 225.090 223.916,225.009 223.463,228.086 219.288 C 228.942 218.127,230.223 215.967,230.933 214.488 C 231.643 213.010,232.364 211.575,232.536 211.300 C 233.055 210.467,235.116 210.737,236.908 211.872 M193.374 261.144 C 184.549 264.985,180.166 274.183,183.037 282.838 C 183.607 284.556,184.327 286.173,184.637 286.430 C 184.946 286.688,185.200 287.117,185.200 287.385 C 185.200 288.081,190.011 292.800,190.720 292.800 C 191.045 292.800,191.527 293.094,191.790 293.454 C 193.478 295.762,205.012 295.873,208.072 293.610 C 208.674 293.165,209.339 292.800,209.549 292.800 C 210.156 292.800,214.800 288.064,214.800 287.445 C 214.800 287.138,215.060 286.786,215.378 286.664 C 215.695 286.542,216.163 285.668,216.417 284.721 C 216.671 283.775,217.131 282.522,217.439 281.938 C 218.187 280.523,218.183 275.115,217.434 273.666 C 217.123 273.065,216.746 271.919,216.596 271.121 C 216.446 270.322,215.981 269.301,215.562 268.851 C 215.143 268.401,214.800 267.846,214.800 267.618 C 214.800 266.643,208.979 261.626,207.801 261.586 C 207.581 261.579,206.680 261.225,205.800 260.800 C 203.229 259.558,196.596 259.742,193.374 261.144 M207.202 262.292 C 214.523 265.825,218.278 273.279,216.657 281.056 C 212.930 298.928,187.899 299.181,183.507 281.391 C 180.190 267.953,194.699 256.257,207.202 262.292 M109.600 381.400 C 110.915 382.152,111.564 382.160,110.576 381.413 C 110.149 381.090,109.530 380.826,109.200 380.827 C 108.852 380.828,109.020 381.068,109.600 381.400 " stroke="none" fill="#85aef2" fill-rule="evenodd"></path></g></svg>